<svg width="129" height="129" viewBox="0 0 129 129" fill="none" xmlns="http://www.w3.org/2000/svg">
<path d="M125.501 52.8172C120.709 48.9386 103.893 52.6432 94.9607 64.3968C86.0281 76.1504 95.2432 85.9037 97.2608 87.5368C99.2785 89.17 110.721 95.9279 120.41 84.7867C130.099 73.6454 130.293 56.6958 125.501 52.8172Z" fill="black"/>
<path d="M125.501 52.8172C120.709 48.9386 103.893 52.6432 94.9607 64.3968C86.0281 76.1504 95.2432 85.9037 97.2608 87.5368C99.2785 89.17 110.721 95.9279 120.41 84.7867C130.099 73.6454 130.293 56.6958 125.501 52.8172Z" fill="black"/>
<path d="M125.501 52.8172C120.709 48.9386 103.893 52.6432 94.9607 64.3968C86.0281 76.1504 95.2432 85.9037 97.2608 87.5368C99.2785 89.17 110.721 95.9279 120.41 84.7867C130.099 73.6454 130.293 56.6958 125.501 52.8172Z" fill="black"/>
<path d="M62.9528 2.19156C58.1609 -1.68701 41.3456 2.01758 32.4129 13.7712C23.4803 25.5248 32.6954 35.2781 34.713 36.9112C36.7307 38.5443 48.173 45.3022 57.8622 34.161C67.5515 23.0198 67.7448 6.07014 62.9528 2.19156Z" fill="black"/>
<path d="M62.9528 2.19156C58.1609 -1.68701 41.3456 2.01758 32.4129 13.7712C23.4803 25.5248 32.6954 35.2781 34.713 36.9112C36.7307 38.5443 48.173 45.3022 57.8622 34.161C67.5515 23.0198 67.7448 6.07014 62.9528 2.19156Z" fill="black"/>
<path d="M62.9528 2.19156C58.1609 -1.68701 41.3456 2.01758 32.4129 13.7712C23.4803 25.5248 32.6954 35.2781 34.713 36.9112C36.7307 38.5443 48.173 45.3022 57.8622 34.161C67.5515 23.0198 67.7448 6.07014 62.9528 2.19156Z" fill="black"/>
<path d="M108.347 10.1446C103.555 6.26598 86.7394 9.97057 77.8067 21.7242C68.8741 33.4778 78.0892 43.2311 80.1068 44.8642C82.1245 46.4973 93.5668 53.2552 103.256 42.114C112.945 30.9728 113.139 14.0231 108.347 10.1446Z" fill="black"/>
<path d="M108.347 10.1446C103.555 6.26598 86.7394 9.97057 77.8067 21.7242C68.8741 33.4778 78.0892 43.2311 80.1068 44.8642C82.1245 46.4973 93.5668 53.2552 103.256 42.114C112.945 30.9728 113.139 14.0231 108.347 10.1446Z" fill="black"/>
<path d="M108.347 10.1446C103.555 6.26598 86.7394 9.97057 77.8067 21.7242C68.8741 33.4778 78.0892 43.2311 80.1068 44.8642C82.1245 46.4973 93.5668 53.2552 103.256 42.114C112.945 30.9728 113.139 14.0231 108.347 10.1446Z" fill="black"/>
<path d="M76.831 48.4806C69.8973 41.5638 60.1318 44.1765 42.7067 52.7687C31.785 58.7403 10.5399 46.5513 1.61402 68.3237C-4.57713 88.513 18.2481 94.5537 31.2007 104.581C43.7057 115.159 54.334 136.195 72.863 125.992C92.3816 112.793 76.0477 94.5661 79.6553 82.6746C84.4936 63.8947 83.7647 55.3973 76.831 48.4806Z" fill="black"/>
</svg>
